<svg xmlns="http://www.w3.org/2000/svg" viewBox="0 0 64 64" fill="none">
  <!-- Background circle for better visibility -->
  <circle cx="32" cy="32" r="31" fill="url(#bg)"/>

  <!-- Shopee-style paper bag -->
  <g transform="translate(16, 12)">
    <!-- Handle -->
    <path d="M8 10c0-4.418 3.582-8 8-8s8 3.582 8 8" stroke="#ffffff" stroke-width="3" stroke-linecap="round"/>
    <!-- Bag body -->
    <path d="M4 12h32c1.105 0 2 .895 2 2l-4 24c-.17 1.02-1.05 2-2.2 2H8.2C7.05 40 6.17 39.02 6 38L2 14c0-1.105.895-2 2-2z" fill="url(#bag)"/>
    <!-- Bag top shadow -->
    <rect x="4" y="12" width="32" height="3" fill="#000" opacity="0.08"/>
    <!-- White S letter (simplified, centered) -->
    <path d="M24.5 30.5c0 3.59-3.14 6.5-7 6.5s-7-2.91-7-6.5c0-3.02 2.11-4.58 5.42-5.44l3.05-.79c1.63-.41 2.53-1.12 2.53-2.32 0-1.58-1.6-2.95-4-2.95-2.24 0-3.86.96-4.54 2.6-.26.62-.92 1.01-1.6.94l-2.02-.21c-.78-.08-1.32-.82-1.12-1.57 1-3.66 4.5-5.96 9.28-5.96 4.88 0 8.72 3 8.72 6.93 0 2.93-1.74 4.94-5 5.79l-3.24.84c-1.9.49-2.58 1.14-2.58 2.31 0 1.43 1.5 2.55 3.6 2.55 1.96 0 3.44-.88 3.98-2.33.23-.61.86-1 1.53-.93l2.02.21c.79.08 1.33.83 1.12 1.58-.86 3.02-3.82 5.29-7.65 5.29-4.54 0-8.02-2.95-8.02-6.74 0-2.88 1.67-4.89 4.88-5.74l3.3-.86c1.55-.41 2.38-1.05 2.38-2.14 0-1.44-1.57-2.57-3.73-2.57-2 0-3.54.85-4.14 2.29-.24.57-.86.95-1.5.88l-1.98-.2c-.8-.08-1.33-.83-1.12-1.58 1-3.58 4.4-5.82 8.94-5.82 4.72 0 8.34 2.88 8.34 6.66 0 2.77-1.7 4.67-4.83 5.5l-3.18.82c-1.83.47-2.6 1.12-2.6 2.26 0 1.4 1.47 2.48 3.52 2.48 1.86 0 3.28-.84 3.83-2.23.25-.63.91-1.03 1.6-.96l1.98.21c.79.08 1.32.83 1.12 1.57-.84 2.95-3.76 5.1-7.49 5.1z" fill="#ffffff" opacity="0.95"/>
  </g>

  <defs>
    <linearGradient id="bg" x1="0" y1="0" x2="1" y2="1">
      <stop offset="0" stop-color="#FFE3D3"/>
      <stop offset="1" stop-color="#FFD3BD"/>
    </linearGradient>
    <linearGradient id="bag" x1="0" y1="0" x2="1" y2="1">
      <stop offset="0" stop-color="#FF7A45"/>
      <stop offset="1" stop-color="#FF5A24"/>
    </linearGradient>
  </defs>
</svg>

